<svg width="20" height="20" viewBox="0 0 20 20" fill="none" xmlns="http://www.w3.org/2000/svg">
<path d="M10 19.175L8.55 17.875C6.86667 16.3583 5.475 15.05 4.375 13.95C3.275 12.85 2.4 11.8667 1.75 11C1.1 10.1167 0.641667 9.30833 0.375 8.575C0.125 7.84166 0 7.09166 0 6.325C0 4.75833 0.525 3.45 1.575 2.4C2.625 1.35 3.93333 0.824997 5.5 0.824997C6.36667 0.824997 7.19167 1.00833 7.975 1.375C8.75833 1.74166 9.43333 2.25833 10 2.925C10.5667 2.25833 11.2417 1.74166 12.025 1.375C12.8083 1.00833 13.6333 0.824997 14.5 0.824997C16.0667 0.824997 17.375 1.35 18.425 2.4C19.475 3.45 20 4.75833 20 6.325C20 7.09166 19.8667 7.84166 19.6 8.575C19.35 9.30833 18.9 10.1167 18.25 11C17.6 11.8667 16.725 12.85 15.625 13.95C14.525 15.05 13.1333 16.3583 11.45 17.875L10 19.175ZM10 16.475C11.6 15.0417 12.9167 13.8167 13.95 12.8C14.9833 11.7667 15.8 10.875 16.4 10.125C17 9.35833 17.4167 8.68333 17.65 8.1C17.8833 7.5 18 6.90833 18 6.325C18 5.325 17.6667 4.49166 17 3.825C16.3333 3.15833 15.5 2.825 14.5 2.825C13.7167 2.825 12.9917 3.05 12.325 3.5C11.6583 3.93333 11.2 4.49166 10.95 5.175H9.05C8.8 4.49166 8.34167 3.93333 7.675 3.5C7.00833 3.05 6.28333 2.825 5.5 2.825C4.5 2.825 3.66667 3.15833 3 3.825C2.33333 4.49166 2 5.325 2 6.325C2 6.90833 2.11667 7.5 2.35 8.1C2.58333 8.68333 3 9.35833 3.6 10.125C4.2 10.875 5.01667 11.7667 6.05 12.8C7.08333 13.8167 8.4 15.0417 10 16.475Z" fill="#CECECE"/>
</svg>
