<svg width="629" height="542" viewBox="0 0 629 542" fill="none" xmlns="http://www.w3.org/2000/svg">
<path d="M354.905 287.345C350.347 287.345 345.362 287.061 339.95 286.491C334.538 285.921 329.838 285.209 325.85 284.355V271.323C335.82 272.889 344.009 273.673 350.418 273.673C354.976 273.673 358.608 273.317 361.314 272.605C364.162 271.892 366.512 270.539 368.364 268.545C370.073 266.836 371.212 264.202 371.782 260.641C372.352 256.938 372.636 251.953 372.636 245.686C372.636 237.141 372.352 231.302 371.782 228.168C371.355 225.035 370.215 222.827 368.364 221.545C366.655 220.121 363.308 218.911 358.323 217.914L338.027 213.855C333.755 213 330.55 211.077 328.414 208.086C326.277 205.095 324.924 201.25 324.355 196.55C323.785 191.85 323.5 185.512 323.5 177.536C323.5 163.009 326.064 152.612 331.191 146.345C336.461 140.079 345.149 136.945 357.255 136.945C362.809 136.945 368.008 137.302 372.85 138.014C377.692 138.583 381.111 139.224 383.105 139.936V152.755C380.683 152.185 377.408 151.686 373.277 151.259C369.147 150.832 365.088 150.618 361.1 150.618C355.83 150.618 351.7 151.188 348.709 152.327C345.718 153.324 343.439 154.962 341.873 157.241C340.449 159.52 339.523 162.226 339.095 165.359C338.668 168.492 338.455 172.552 338.455 177.536C338.455 184.23 338.668 189.073 339.095 192.064C339.665 195.055 340.591 197.191 341.873 198.473C343.297 199.612 345.647 200.467 348.923 201.036L367.082 204.882C372.209 206.021 376.197 207.588 379.045 209.582C381.894 211.433 384.102 214.78 385.668 219.623C386.523 221.617 387.021 224.394 387.164 227.955C387.449 231.515 387.591 236.642 387.591 243.336C387.591 254.303 386.665 262.92 384.814 269.186C382.962 275.311 379.686 279.868 374.986 282.859C370.429 285.85 363.735 287.345 354.905 287.345ZM439.157 287.345C427.763 287.345 419.574 285.423 414.589 281.577C409.747 277.732 406.613 270.895 405.189 261.068C403.765 251.241 403.053 234.933 403.053 212.145C403.053 189.358 403.765 173.05 405.189 163.223C406.613 153.395 409.747 146.559 414.589 142.714C419.574 138.868 427.763 136.945 439.157 136.945C450.551 136.945 458.67 138.868 463.512 142.714C468.497 146.559 471.701 153.395 473.126 163.223C474.55 173.05 475.262 189.358 475.262 212.145C475.262 234.933 474.55 251.241 473.126 261.068C471.701 270.895 468.497 277.732 463.512 281.577C458.67 285.423 450.551 287.345 439.157 287.345ZM439.157 273.673C445.994 273.673 450.765 272.605 453.471 270.468C456.177 268.189 458.029 262.991 459.026 254.873C460.023 246.612 460.521 232.37 460.521 212.145C460.521 191.921 460.023 177.75 459.026 169.632C458.029 161.371 456.177 156.173 453.471 154.036C450.765 151.758 445.994 150.618 439.157 150.618C432.321 150.618 427.55 151.758 424.844 154.036C422.138 156.173 420.286 161.371 419.289 169.632C418.292 177.75 417.794 191.921 417.794 212.145C417.794 232.37 418.292 246.612 419.289 254.873C420.286 262.991 422.138 268.189 424.844 270.468C427.55 272.605 432.321 273.673 439.157 273.673ZM496.375 285.636V138.655H511.33V271.75H548.075V285.636H496.375Z" fill="white"/>
<path d="M283.55 448V326.227H282.482L257.059 448H241.25L216.255 326.227H214.973V448H200.873V301.018H223.518L248.941 423.218H250.223L275.859 301.018H298.077V448H283.55ZM322.086 448V301.018H378.059V314.691H337.041V366.818H372.932V380.491H337.041V434.327H378.059V448H322.086ZM450.413 448L411.318 338.618H410.463V448H396.15V301.018H411.318L449.772 408.05H450.841V301.018H464.941V448H450.413ZM505.445 448V314.905H479.381V301.018H546.249V314.905H520.186V448H505.445ZM606.528 448L598.196 407.195H564.014L555.896 448H540.942L571.064 301.018H591.574L621.483 448H606.528ZM581.746 320.673H580.464L566.151 393.95H596.06L581.746 320.673Z" fill="white"/>
<path d="M335.968 486.818V462.891H339.215V483.879H350.187V486.818H335.968ZM372.938 487.297C370.659 487.297 368.631 486.79 366.853 485.776C365.076 484.75 363.68 483.309 362.666 481.452C361.652 479.583 361.145 477.384 361.145 474.855C361.145 472.325 361.652 470.132 362.666 468.275C363.68 466.406 365.076 464.965 366.853 463.951C368.631 462.925 370.659 462.412 372.938 462.412C375.216 462.412 377.244 462.925 379.022 463.951C380.799 464.965 382.195 466.406 383.209 468.275C384.223 470.132 384.73 472.325 384.73 474.855C384.73 477.384 384.223 479.583 383.209 481.452C382.195 483.309 380.799 484.75 379.022 485.776C377.244 486.79 375.216 487.297 372.938 487.297ZM372.938 484.152C374.772 484.152 376.304 483.742 377.535 482.921C378.766 482.09 379.688 480.973 380.304 479.572C380.93 478.159 381.244 476.586 381.244 474.855C381.244 473.123 380.93 471.556 380.304 470.155C379.688 468.742 378.766 467.625 377.535 466.805C376.304 465.973 374.772 465.557 372.938 465.557C371.103 465.557 369.571 465.973 368.34 466.805C367.11 467.625 366.181 468.742 365.554 470.155C364.939 471.556 364.631 473.123 364.631 474.855C364.631 476.586 364.939 478.159 365.554 479.572C366.181 480.973 367.11 482.09 368.34 482.921C369.571 483.742 371.103 484.152 372.938 484.152ZM408.71 487.297C406.465 487.297 404.608 486.869 403.138 486.015C401.68 485.149 400.592 483.924 399.874 482.34C399.156 480.745 398.797 478.854 398.797 476.666V462.891H402.044V475.777C402.044 476.871 402.13 477.931 402.301 478.956C402.472 479.982 402.785 480.899 403.241 481.708C403.708 482.517 404.38 483.161 405.257 483.639C406.146 484.118 407.297 484.357 408.71 484.357C410.134 484.357 411.285 484.118 412.162 483.639C413.04 483.161 413.706 482.517 414.162 481.708C414.629 480.888 414.948 479.965 415.119 478.939C415.29 477.914 415.375 476.86 415.375 475.777V462.891H418.623V476.666C418.623 478.854 418.264 480.745 417.546 482.34C416.828 483.924 415.734 485.149 414.264 486.015C412.806 486.869 410.954 487.297 408.71 487.297ZM434.06 486.818V462.891H437.581L449.374 480.802V462.891H452.655V486.818H449.886L437.307 467.916V486.818H434.06ZM478.705 487.297C476.495 487.297 474.501 486.79 472.723 485.776C470.957 484.75 469.556 483.303 468.519 481.435C467.493 479.566 466.981 477.361 466.981 474.82C466.981 472.302 467.511 470.115 468.57 468.257C469.641 466.4 471.105 464.965 472.963 463.951C474.831 462.925 476.962 462.412 479.355 462.412C480.642 462.412 481.867 462.549 483.029 462.823C484.203 463.085 485.222 463.404 486.088 463.78L485.781 466.617C484.846 466.252 483.855 465.95 482.807 465.711C481.759 465.472 480.642 465.352 479.457 465.352C477.418 465.352 475.737 465.779 474.415 466.634C473.105 467.477 472.131 468.616 471.493 470.052C470.855 471.488 470.536 473.088 470.536 474.855C470.536 476.678 470.86 478.307 471.51 479.743C472.159 481.167 473.156 482.295 474.501 483.127C475.845 483.947 477.554 484.357 479.628 484.357C480.141 484.357 480.779 484.312 481.542 484.22C482.306 484.129 483.001 483.958 483.627 483.708V477.76H479.867V474.82H486.875V485.485C485.94 485.998 484.778 486.431 483.388 486.784C481.998 487.126 480.437 487.297 478.705 487.297ZM501.603 486.818V462.891H516.198V465.831H504.85V472.838H513.874V475.777H504.85V483.879H516.506V486.818H501.603ZM548.716 486.818V462.891H556.27C558.412 462.891 560.093 463.375 561.312 464.344C562.531 465.301 563.141 466.765 563.141 468.736C563.141 470.069 562.85 471.243 562.269 472.257C561.688 473.271 560.817 473.932 559.654 474.239L560.133 473.692C561.796 473.966 563.084 474.632 563.995 475.692C564.907 476.74 565.363 478.17 565.363 479.982C565.363 482.078 564.685 483.742 563.329 484.972C561.984 486.203 560.122 486.818 557.74 486.818H548.716ZM551.963 483.879H557.467C558.788 483.879 559.842 483.548 560.629 482.887C561.415 482.226 561.808 481.224 561.808 479.879C561.808 478.375 561.403 477.316 560.594 476.7C559.797 476.085 558.754 475.777 557.467 475.777H551.963V483.879ZM551.963 472.838H555.86C557.022 472.838 557.968 472.604 558.697 472.137C559.426 471.67 559.791 470.73 559.791 469.317C559.791 467.916 559.426 466.981 558.697 466.514C557.968 466.036 557.022 465.796 555.86 465.796H551.963V472.838ZM592.287 480.358H582.033V477.418H592.287V480.358ZM586.681 466.07H587.638L580.289 486.818H576.871L585.451 462.891H588.869L597.449 486.818H594.03L586.681 466.07ZM610.684 486.818V462.891H618.443C620.107 462.891 621.56 463.147 622.802 463.66C624.043 464.173 625.006 464.965 625.69 466.036C626.374 467.107 626.715 468.485 626.715 470.172C626.715 471.812 626.356 473.185 625.639 474.291C624.932 475.396 623.901 476.267 622.545 476.905L627.912 486.818H623.947L619.093 477.487C619.059 477.487 619.03 477.487 619.007 477.487C618.985 477.487 618.956 477.487 618.922 477.487H614.102V486.818H610.684ZM614.102 474.581H618.409C620.038 474.581 621.263 474.188 622.084 473.402C622.915 472.616 623.331 471.539 623.331 470.172C623.331 468.782 622.915 467.705 622.084 466.941C621.263 466.178 620.038 465.796 618.409 465.796H614.102V474.581Z" fill="white"/>
<path d="M29.9636 301.018H64.7864C73.9015 301.018 80.6667 302.941 85.0818 306.786C89.497 310.632 92.2742 315.759 93.4136 322.168C94.6955 328.435 95.3364 336.838 95.3364 347.377C95.3364 357.489 94.6955 365.75 93.4136 372.159C92.1318 378.568 89.2833 383.767 84.8682 387.755C80.453 391.742 73.7591 393.736 64.7864 393.736H44.9182V448H29.9636V301.018ZM62.8636 380.064C68.1333 380.064 71.9788 378.924 74.4 376.645C76.9636 374.367 78.6015 371.02 79.3136 366.605C80.1682 362.189 80.5955 355.78 80.5955 347.377C80.5955 338.832 80.2394 332.423 79.5273 328.15C78.8152 323.735 77.1773 320.388 74.6136 318.109C72.05 315.83 68.1333 314.691 62.8636 314.691H44.9182V380.064H62.8636Z" fill="white"/>
<path d="M623.659 239.328V247.019H614.815V286.755C612.422 287.354 609.559 287.866 606.226 288.294C602.894 288.721 599.86 288.935 597.125 288.935C591.058 288.935 586.358 288.08 583.025 286.371C579.778 284.662 577.514 282.055 576.232 278.552C575.035 275.048 574.437 270.348 574.437 264.452C574.437 257.615 575.249 252.702 576.873 249.711C578.582 246.635 581.274 244.455 584.948 243.174V242.661C581.53 241.465 579.009 239.243 577.385 235.995C575.762 232.748 574.95 228.005 574.95 221.767C574.95 216.298 575.634 211.897 577.001 208.565C578.368 205.232 580.675 202.754 583.923 201.13C587.255 199.506 591.785 198.695 597.51 198.695C599.988 198.695 602.808 198.908 605.97 199.335C609.217 199.677 612.08 200.147 614.558 200.745V207.795C609.175 206.685 604.475 206.129 600.458 206.129C595.502 206.129 591.827 206.642 589.435 207.667C587.042 208.693 585.461 210.359 584.692 212.666C583.923 214.974 583.538 218.435 583.538 223.049C583.538 228.176 584.136 232.193 585.333 235.098C586.615 237.918 589.392 239.328 593.665 239.328H599.561V247.019H593.665C590.588 247.019 588.281 247.66 586.743 248.942C585.205 250.138 584.179 251.975 583.666 254.454C583.154 256.846 582.897 260.136 582.897 264.324C582.897 269.195 583.41 272.869 584.435 275.347C585.461 277.74 587.042 279.364 589.178 280.218C591.315 280.987 594.391 281.372 598.407 281.372C601.569 281.372 604.218 281.115 606.355 280.603V239.328H623.659Z" fill="white"/>
<g filter="url(#filter0_f_4_95)">
<path d="M70.9371 146.182C111.528 147.606 199.119 150.455 250.392 146.182C298.94 142.136 256.801 120.545 241.846 120.545M130.755 116.273H199.119M32.4826 124.818C25.3614 125.53 13.6826 129.945 23.9371 141.909L135.028 287.182V447.409L68.8008 485.864C64.528 488.712 58.9735 495.691 70.9371 500.818C82.9008 505.945 181.316 502.955 229.028 500.818C235.437 500.106 244.41 496.118 229.028 485.864C213.646 475.609 179.892 455.955 164.937 447.409V287.182L250.392 176.091" stroke="#00FFFF" stroke-width="4.27273"/>
<path d="M64.528 133.364C55.9825 126.955 38.4644 110.291 36.7553 94.9091C35.9249 87.436 37.078 80.6689 38.8916 75.1957M132.892 133.364C121.498 136.212 96.1462 129.945 85.8916 82.0909C78.1358 45.8971 64.1882 45.7137 53.8462 53.6272M49.5734 79.9545C55.2704 72.1212 67.9462 61.5818 73.0735 82.0909C78.2007 102.6 86.6038 116.273 90.1644 120.545M38.8916 75.1957C40.8109 69.4035 43.47 65.0605 45.3007 62.8636C47.5565 59.5667 50.5142 56.1767 53.8462 53.6272M38.8916 75.1957L41.028 47.9091M41.028 47.9091L53.8462 53.6272M41.028 47.9091L32.4825 26.5455" stroke="#DF2A2F" stroke-width="4.27273"/>
<path d="M207.664 86.3636H203.392M211.937 73.5455L190.573 65M224.755 60.7273L207.664 47.9091M235.437 52.1818L216.21 26.5455M248.255 43.6364L243.983 32.9545M263.21 43.6364V18M280.301 43.6364V39.3636M293.119 47.9091L297.392 22.2727M305.937 56.4545L318.755 41.5M318.755 65L340.119 43.6364M327.301 77.8182L335.846 69.2727M331.573 90.6364L352.937 86.3636M335.846 107.727H340.119M335.846 120.545L357.21 124.818M327.301 137.636L344.392 148.318M318.755 150.455L344.392 169.682M310.21 163.273L318.755 171.818M297.392 167.545L305.937 188.909M280.301 171.818V176.091" stroke="#FFFF15" stroke-width="4.27273"/>
<path d="M220.483 120.545C218.346 101.318 224.755 63.2909 267.483 65C310.21 66.7091 318.043 99.8939 316.619 116.273C315.907 131.939 303.374 162.418 258.937 159" stroke="#FFFF15" stroke-width="4.27273"/>
</g>
<path d="M69.0368 148.318C109.628 149.742 197.219 152.591 248.491 148.318C297.04 144.272 254.9 122.682 239.946 122.682M128.855 118.409H197.219M30.5822 126.955C23.461 127.667 11.7822 132.082 22.0368 144.045L133.128 289.318V449.545L66.9004 488C62.6277 490.849 57.0731 497.827 69.0368 502.955C81.0004 508.082 179.416 505.091 227.128 502.955C233.537 502.242 242.509 498.255 227.128 488C211.746 477.745 177.991 458.091 163.037 449.545V289.318L248.491 178.227" stroke="#00FFFF" stroke-width="4.27273"/>
<path d="M62.6276 135.5C54.0821 129.091 36.564 112.427 34.8549 97.0455C34.0245 89.5724 35.1776 82.8052 36.9912 77.3321M130.991 135.5C119.597 138.349 94.2458 132.082 83.9912 84.2273C76.2354 48.0335 62.2878 47.8501 51.9458 55.7636M47.6731 82.0909C53.37 74.2576 66.0458 63.7182 71.1731 84.2273C76.3003 104.736 84.7034 118.409 88.264 122.682M36.9912 77.3321C38.9106 71.5399 41.5696 67.1969 43.4003 65C45.6561 61.7031 48.6138 58.3131 51.9458 55.7636M36.9912 77.3321L39.1276 50.0455M39.1276 50.0455L51.9458 55.7636M39.1276 50.0455L30.5822 28.6818" stroke="#DF2A2F" stroke-width="4.27273"/>
<path d="M205.764 88.5H201.491M210.037 75.6818L188.673 67.1364M222.855 62.8636L205.764 50.0455M233.537 54.3182L214.309 28.6818M246.355 45.7727L242.082 35.0909M261.309 45.7727V20.1364M278.4 45.7727V41.5M291.219 50.0455L295.491 24.4091M304.037 58.5909L316.855 43.6364M316.855 67.1364L338.219 45.7727M325.4 79.9545L333.946 71.4091M329.673 92.7727L351.037 88.5M333.946 109.864H338.219M333.946 122.682L355.309 126.955M325.4 139.773L342.491 150.455M316.855 152.591L342.491 171.818M308.309 165.409L316.855 173.955M295.491 169.682L304.037 191.045M278.4 173.955V178.227" stroke="#FFFF15" stroke-width="4.27273"/>
<path d="M218.582 122.682C216.446 103.455 222.855 65.4273 265.582 67.1364C308.31 68.8454 316.143 102.03 314.719 118.409C314.006 134.076 301.473 164.555 257.037 161.136" stroke="#FFFF15" stroke-width="4.27273"/>
<defs>
<filter id="filter0_f_4_95" x="0.672884" y="0.90909" width="374.047" height="521.967" filterUnits="userSpaceOnUse" color-interpolation-filters="sRGB">
<feFlood flood-opacity="0" result="BackgroundImageFix"/>
<feBlend mode="normal" in="SourceGraphic" in2="BackgroundImageFix" result="shape"/>
<feGaussianBlur stdDeviation="8.54545" result="effect1_foregroundBlur_4_95"/>
</filter>
</defs>
</svg>
